<svg width="18" height="16" viewBox="0 0 18 16" fill="none" xmlns="http://www.w3.org/2000/svg">
<path d="M14.2827 6.62649C14.5743 6.25206 14.5722 5.64768 14.278 5.27658C13.9838 4.90547 13.5089 4.90817 13.2173 5.2826L11.47 7.52638C10.7609 8.437 10.2728 9.06166 9.8593 9.48433C9.4576 9.89492 9.19958 10.0358 8.9685 10.0733C8.82341 10.0968 8.67659 10.0968 8.5315 10.0733C8.30042 10.0358 8.0424 9.89492 7.64071 9.48434C7.22718 9.06166 6.73914 8.43701 6.03 7.52638L4.28269 5.2826C3.99111 4.90817 3.51624 4.90547 3.22204 5.27658C2.92784 5.64768 2.92573 6.25206 3.21731 6.62649L4.99609 8.91069C5.66604 9.77102 6.21359 10.4742 6.70146 10.9728C7.20879 11.4914 7.72373 11.8668 8.34184 11.967C8.61287 12.011 8.88714 12.011 9.15816 11.967C9.77628 11.8668 10.2912 11.4914 10.7985 10.9728C11.2864 10.4742 11.834 9.77103 12.5039 8.9107L14.2827 6.62649Z" fill="white"/>
</svg>
