<svg width="13" height="13" viewBox="0 0 13 13" fill="none" xmlns="http://www.w3.org/2000/svg">
<g clip-path="url(#clip0_127_326)">
<path d="M9.12044 3.34494C9.12044 3.31873 9.12008 3.29261 9.11936 3.26657C9.07797 1.76334 7.84937 0.557489 6.33982 0.557489C4.84415 0.557489 3.62429 1.74127 3.56172 3.22518C3.56005 3.26489 3.5592 3.30481 3.5592 3.34494M9.12044 3.34494H3.5592M9.12044 3.34494H9.84825C11.0082 3.34494 11.5881 3.34494 11.9197 3.71631C12.2513 4.08769 12.1872 4.66551 12.0591 5.82115L11.8946 7.30552C11.6332 9.66443 11.5024 10.8439 10.7106 11.5543C9.91881 12.2648 8.72581 12.2648 6.33982 12.2648C3.95383 12.2648 2.76083 12.2648 1.96902 11.5543C1.17721 10.8439 1.04648 9.66443 0.785025 7.30552L0.6205 5.82116C0.49241 4.66551 0.428364 4.08769 0.759947 3.71631C1.09153 3.34494 1.67148 3.34494 2.83139 3.34494H3.5592" stroke="white"/>
</g>
<defs>
<clipPath id="clip0_127_326">
<rect width="12.6796" height="12.7108" fill="white"/>
</clipPath>
</defs>
</svg>
