<svg width="16" height="16" viewBox="0 0 16 16" fill="none" xmlns="http://www.w3.org/2000/svg">
<path d="M7.86072 0.059082C3.53577 0.059082 0.0286865 3.63707 0.0286865 8.05109C0.0286865 11.5822 2.2728 14.578 5.38471 15.6348C5.77613 15.7088 5.91983 15.4614 5.91983 15.2503C5.91983 15.0598 5.91257 14.4302 5.90919 13.7624C3.73032 14.2458 3.27055 12.8194 3.27055 12.8194C2.91427 11.8956 2.40094 11.65 2.40094 11.65C1.69034 11.154 2.4545 11.1641 2.4545 11.1641C3.24098 11.2204 3.65509 11.9877 3.65509 11.9877C4.35363 13.2096 5.4873 12.8563 5.93423 12.6521C6.00452 12.1357 6.20749 11.7829 6.43148 11.5834C4.69188 11.3813 2.86317 10.696 2.86317 7.63367C2.86317 6.76111 3.16912 6.04816 3.67014 5.48846C3.58882 5.28703 3.32074 4.47429 3.74601 3.37344C3.74601 3.37344 4.40369 3.15864 5.90037 4.19266C6.52512 4.01558 7.19512 3.92678 7.86072 3.92373C8.52631 3.92678 9.19684 4.01558 9.82275 4.19266C11.3176 3.15864 11.9744 3.37344 11.9744 3.37344C12.4007 4.47429 12.1325 5.28703 12.0512 5.48846C12.5533 6.04816 12.8572 6.76111 12.8572 7.63367C12.8572 10.7033 11.025 11.3792 9.28101 11.5771C9.56193 11.8251 9.81224 12.3115 9.81224 13.0571C9.81224 14.1263 9.80316 14.987 9.80316 15.2503C9.80316 15.463 9.94414 15.7122 10.3411 15.6338C13.4514 14.5758 15.6926 11.581 15.6926 8.05109C15.6926 3.63707 12.1861 0.059082 7.86072 0.059082Z" fill="white"/>
<path d="M2.99509 11.5339C2.97784 11.5738 2.91663 11.5855 2.86086 11.5583C2.80405 11.5322 2.77215 11.4781 2.79056 11.4382C2.80742 11.3974 2.86877 11.3861 2.92545 11.4132C2.98238 11.4394 3.01481 11.4941 2.99509 11.5339Z" fill="white"/>
<path d="M3.3123 11.8949C3.27495 11.9303 3.20193 11.9139 3.15239 11.858C3.10116 11.8023 3.09156 11.7278 3.12943 11.6919C3.16795 11.6566 3.23876 11.6731 3.29012 11.7289C3.34135 11.7852 3.35134 11.8592 3.3123 11.8949Z" fill="white"/>
<path d="M3.6211 12.3552C3.57311 12.3892 3.49465 12.3573 3.44614 12.2862C3.39815 12.2151 3.39815 12.1299 3.44718 12.0958C3.49581 12.0616 3.57311 12.0923 3.62227 12.1629C3.67012 12.235 3.67012 12.3204 3.6211 12.3552Z" fill="white"/>
<path d="M4.04417 12.7999C4.00124 12.8482 3.9098 12.8352 3.84288 12.7693C3.7744 12.7049 3.75534 12.6134 3.79839 12.5651C3.84184 12.5167 3.9338 12.5303 4.00124 12.5957C4.0692 12.66 4.08995 12.7521 4.04417 12.7999Z" fill="white"/>
<path d="M4.62778 13.0581C4.60885 13.1207 4.52079 13.1492 4.43207 13.1226C4.34349 13.0952 4.28552 13.0218 4.30342 12.9586C4.32183 12.8956 4.41028 12.8659 4.49964 12.8944C4.5881 12.9217 4.6462 12.9944 4.62778 13.0581Z" fill="white"/>
<path d="M5.26875 13.1061C5.27095 13.1721 5.19573 13.2267 5.10261 13.2278C5.00897 13.23 4.93323 13.1767 4.93219 13.1118C4.93219 13.0453 5.00573 12.9911 5.09937 12.9895C5.19249 12.9877 5.26875 13.0406 5.26875 13.1061Z" fill="white"/>
<path d="M5.86524 13.0025C5.87639 13.0668 5.81167 13.1329 5.7192 13.1503C5.62828 13.1674 5.54411 13.1277 5.53257 13.0639C5.52129 12.998 5.58717 12.932 5.67796 12.9149C5.77056 12.8985 5.85344 12.9371 5.86524 13.0025Z" fill="white"/>
</svg>
