<svg width="16" height="16" viewBox="0 0 16 16" fill="none" xmlns="http://www.w3.org/2000/svg">
<path d="M0 7.87243C0 3.52461 3.51302 0 7.84656 0C12.1801 0 15.6931 3.52461 15.6931 7.87243C15.6931 12.2203 12.1801 15.7449 7.84656 15.7449C3.51302 15.7449 0 12.2203 0 7.87243Z" fill="white"/>
<mask id="mask0_132_353" style="mask-type:luminance" maskUnits="userSpaceOnUse" x="0" y="0" width="16" height="16">
<path fill-rule="evenodd" clip-rule="evenodd" d="M0 7.87243C0 3.52461 3.51302 0 7.84656 0C12.1801 0 15.6931 3.52461 15.6931 7.87243C15.6931 12.2203 12.1801 15.7449 7.84656 15.7449C3.51302 15.7449 0 12.2203 0 7.87243Z" fill="white"/>
</mask>
<g mask="url(#mask0_132_353)">
<path d="M7.84631 3.67383C8.9825 3.67383 9.12472 3.67885 9.57092 3.69922C10.0164 3.71969 10.3207 3.7907 10.5875 3.89453C10.8629 4.00165 11.096 4.14451 11.3287 4.37793C11.5615 4.61131 11.7049 4.84592 11.8121 5.12207C11.915 5.38903 11.9855 5.69464 12.0065 6.1416C12.0265 6.58911 12.0319 6.73249 12.0319 7.87207C12.0319 9.01236 12.0265 9.15566 12.0065 9.60352C11.9856 10.05 11.9149 10.3552 11.8121 10.6221C11.7049 10.8981 11.5615 11.1328 11.3287 11.3662C11.0962 11.5998 10.8627 11.7433 10.5875 11.8506C10.3214 11.9543 10.0171 12.0254 9.5719 12.0459C9.12551 12.0663 8.98294 12.0713 7.84631 12.0713C6.70998 12.0713 6.5671 12.0663 6.12073 12.0459C5.67548 12.0254 5.3713 11.9544 5.1051 11.8506C4.83009 11.7434 4.59638 11.5997 4.36389 11.3662C4.13124 11.1329 3.98843 10.8982 3.88147 10.6221C3.77814 10.3552 3.70763 10.0502 3.68713 9.60352C3.66691 9.15566 3.66174 9.01236 3.66174 7.87207C3.66174 6.73254 3.66719 6.58906 3.68713 6.1416C3.70719 5.69479 3.77772 5.38912 3.88147 5.12207C3.9887 4.84604 4.13113 4.61129 4.36389 4.37793C4.5965 4.14447 4.83084 4.00177 5.10608 3.89453C5.37211 3.79075 5.67632 3.71968 6.1217 3.69922C6.56777 3.67885 6.71062 3.67383 7.84631 3.67383ZM7.47131 4.42969C6.69156 4.43056 6.5419 4.43563 6.15588 4.45312C5.74789 4.47193 5.52605 4.53993 5.37854 4.59766C5.18344 4.67388 5.04442 4.76532 4.89807 4.91211C4.75168 5.05898 4.66042 5.19877 4.58459 5.39453C4.52731 5.54253 4.45872 5.76543 4.44006 6.1748C4.42003 6.61703 4.41663 6.74959 4.41663 7.87012C4.41663 8.99134 4.42001 9.12477 4.44006 9.56738C4.45864 9.97669 4.52732 10.1989 4.58459 10.3467C4.66061 10.5427 4.75162 10.6822 4.89807 10.8291C5.04444 10.9759 5.18341 11.0675 5.37854 11.1436C5.52614 11.201 5.74788 11.2692 6.15588 11.2881C6.59704 11.3082 6.72984 11.3125 7.84729 11.3125C8.96411 11.3125 9.09684 11.3082 9.53772 11.2881C9.94574 11.2694 10.1677 11.2013 10.3151 11.1436C10.5104 11.0675 10.6491 10.976 10.7955 10.8291C10.942 10.6822 11.0332 10.5426 11.109 10.3467C11.1663 10.1989 11.2349 9.97651 11.2535 9.56738C11.2736 9.12498 11.278 8.99139 11.278 7.87109C11.278 6.75128 11.2736 6.61806 11.2535 6.17578C11.235 5.76672 11.1663 5.54431 11.109 5.39648C11.033 5.20055 10.942 5.06004 10.7955 4.91309C10.6493 4.76633 10.5101 4.67565 10.3151 4.59961C10.1675 4.54214 9.94574 4.4738 9.53772 4.45508C9.09673 4.43497 8.96413 4.43066 7.84729 4.43066C7.70762 4.43066 7.58274 4.43049 7.47131 4.43066V4.42969ZM7.84729 5.71582C9.03381 5.71604 9.9955 6.68164 9.99573 7.87207C9.99573 9.06272 9.03399 10.0281 7.84729 10.0283C6.66044 10.0283 5.69788 9.06283 5.69788 7.87207C5.69811 6.68151 6.66059 5.71582 7.84729 5.71582ZM7.84729 6.47266C7.07698 6.47266 6.45201 7.09928 6.45178 7.87207C6.45178 8.64498 7.07684 9.27246 7.84729 9.27246C8.61751 9.27228 9.24182 8.64487 9.24182 7.87207C9.24159 7.09938 8.61736 6.47283 7.84729 6.47266ZM10.0807 5.12793C10.3578 5.12793 10.5824 5.35289 10.5826 5.63086C10.5826 5.90902 10.3579 6.13477 10.0807 6.13477C9.8035 6.1347 9.57874 5.90898 9.57874 5.63086C9.57896 5.35285 9.80364 5.128 10.0807 5.12793Z" fill="black"/>
</g>
</svg>
