<svg width="11" height="13" viewBox="0 0 11 13" fill="none" xmlns="http://www.w3.org/2000/svg">
<g clip-path="url(#clip0_127_323)">
<path fill-rule="evenodd" clip-rule="evenodd" d="M5.0718 0.696861C3.61289 0.696861 2.43021 1.88245 2.43021 3.34494C2.43021 4.80743 3.61289 5.99301 5.0718 5.99301C6.53071 5.99301 7.71339 4.80743 7.71339 3.34494C7.71339 1.88245 6.53071 0.696861 5.0718 0.696861ZM3.2644 3.34494C3.2644 2.34428 4.0736 1.5331 5.0718 1.5331C6.07 1.5331 6.87921 2.34428 6.87921 3.34494C6.87921 4.34559 6.07 5.15678 5.0718 5.15678C4.0736 5.15678 3.2644 4.34559 3.2644 3.34494Z" fill="white"/>
<path fill-rule="evenodd" clip-rule="evenodd" d="M3.40343 6.82925C1.94452 6.82925 0.761841 8.01483 0.761841 9.47732C0.761841 10.9398 1.94452 12.1254 3.40343 12.1254H6.74017C8.19908 12.1254 9.38176 10.9398 9.38176 9.47732C9.38176 8.01483 8.19908 6.82925 6.74017 6.82925H3.40343ZM1.59603 9.47732C1.59603 8.47667 2.40523 7.66548 3.40343 7.66548H6.74017C7.73838 7.66548 8.54758 8.47667 8.54758 9.47732C8.54758 10.478 7.73838 11.2892 6.74017 11.2892H3.40343C2.40523 11.2892 1.59603 10.478 1.59603 9.47732Z" fill="white"/>
</g>
<defs>
<clipPath id="clip0_127_323">
<rect width="10.1437" height="12.7108" fill="white"/>
</clipPath>
</defs>
</svg>
