<svg width="13" height="13" viewBox="0 0 13 13" fill="none" xmlns="http://www.w3.org/2000/svg">
<g clip-path="url(#clip0_127_324)">
<path d="M10.3921 9.18001C10.197 8.9845 9.88046 8.98411 9.68496 9.17913C9.48946 9.37416 9.48907 9.69074 9.68409 9.88624L10.0381 9.53312L10.3921 9.18001ZM11.7973 12.0047C11.9923 12.2002 12.3089 12.2006 12.5044 12.0055C12.6999 11.8105 12.7003 11.4939 12.5053 11.2984L12.1513 11.6516L11.7973 12.0047ZM10.0381 9.53312L9.68409 9.88624L11.7973 12.0047L12.1513 11.6516L12.5053 11.2984L10.3921 9.18001L10.0381 9.53312ZM5.8115 10.0627V9.56269C3.46276 9.56269 1.55664 7.65365 1.55664 5.29615H1.05664H0.556641C0.556641 8.20362 2.90817 10.5627 5.8115 10.5627V10.0627ZM10.5664 5.29615H10.0664C10.0664 7.65365 8.16024 9.56269 5.8115 9.56269V10.0627V10.5627C8.71484 10.5627 11.0664 8.20362 11.0664 5.29615H10.5664ZM5.8115 0.529615V1.02962C8.16024 1.02962 10.0664 2.93865 10.0664 5.29615H10.5664H11.0664C11.0664 2.38868 8.71484 0.0296154 5.8115 0.0296154V0.529615ZM5.8115 0.529615V0.0296154C2.90817 0.0296154 0.556641 2.38868 0.556641 5.29615H1.05664H1.55664C1.55664 2.93865 3.46276 1.02962 5.8115 1.02962V0.529615Z" fill="#FAFAFA"/>
</g>
<defs>
<clipPath id="clip0_127_324">
<rect width="12.6796" height="12.7108" fill="white"/>
</clipPath>
</defs>
</svg>
