<svg width="16" height="16" viewBox="0 0 16 16" fill="none" xmlns="http://www.w3.org/2000/svg">
<path d="M7.84668 0C12.18 6.67038e-05 15.6932 3.52445 15.6934 7.87207C15.6934 12.2199 12.1802 15.7451 7.84668 15.7451C3.51315 15.7451 0 12.2199 0 7.87207C0.000193405 3.52441 3.51327 0 7.84668 0ZM11.7529 5.15234C11.6957 4.66952 11.1119 4.77522 10.7871 4.88379C9.11815 5.52095 7.46607 6.20588 5.82031 6.90234C4.86362 7.32759 3.83914 7.75091 2.92188 8.25781C2.47568 8.58596 3.23474 8.8033 3.75293 9.01855C4.33102 9.19679 5.00563 9.46883 5.58398 9.14941C6.71608 8.4969 7.76409 7.70921 8.83789 6.9668C9.03369 6.84106 9.62523 6.43238 9.4248 6.91797C8.68146 7.73353 7.84977 8.3925 7.06543 9.16797C6.79037 9.39218 6.50461 9.84323 6.8125 10.1572C7.75278 10.8177 8.7126 11.4571 9.66504 12.1025C10.0614 12.4199 10.6804 12.163 10.7676 11.667C11.0205 10.1777 11.2795 8.6885 11.5039 7.19434C11.5923 6.51499 11.7216 5.8357 11.7529 5.15234Z" fill="white"/>
</svg>
